<svg width="32" height="33" viewBox="0 0 32 33" fill="none" xmlns="http://www.w3.org/2000/svg">
<g clip-path="url(#clip0_32_1544)">
<path d="M6.66683 18.1159H22.4802L17.6402 23.9292C17.5281 24.064 17.4437 24.2196 17.3918 24.3871C17.3398 24.5545 17.3214 24.7305 17.3375 24.9051C17.37 25.2577 17.5412 25.5829 17.8135 25.8092C18.0858 26.0355 18.4368 26.1444 18.7894 26.1119C19.142 26.0794 19.4672 25.9082 19.6935 25.6359L26.3602 17.6359C26.405 17.5723 26.4451 17.5054 26.4802 17.4359C26.4802 17.3692 26.5468 17.3292 26.5735 17.2626C26.6339 17.1097 26.6656 16.9469 26.6668 16.7826C26.6656 16.6182 26.6339 16.4554 26.5735 16.3026C26.5735 16.2359 26.5068 16.1959 26.4802 16.1292C26.4451 16.0597 26.405 15.9929 26.3602 15.9292L19.6935 7.92922C19.5681 7.77871 19.4111 7.65767 19.2337 7.57471C19.0563 7.49175 18.8627 7.4489 18.6668 7.44922C18.3553 7.44861 18.0534 7.55711 17.8135 7.75589C17.6785 7.86782 17.5669 8.00529 17.4851 8.16042C17.4033 8.31555 17.3529 8.48529 17.3368 8.65993C17.3207 8.83456 17.3392 9.01066 17.3912 9.17813C17.4433 9.3456 17.5279 9.50116 17.6402 9.63589L22.4802 15.4492H6.66683C6.31321 15.4492 5.97407 15.5897 5.72402 15.8397C5.47397 16.0898 5.3335 16.4289 5.3335 16.7826C5.3335 17.1362 5.47397 17.4753 5.72402 17.7254C5.97407 17.9754 6.31321 18.1159 6.66683 18.1159Z" fill="white"/>
</g>
<defs>
<clipPath id="clip0_32_1544">
<rect width="32" height="32" fill="white" transform="translate(0 0.782532)"/>
</clipPath>
</defs>
</svg>
