<svg width="44" height="45" viewBox="0 0 44 45" fill="none" xmlns="http://www.w3.org/2000/svg">
<g clip-path="url(#clip0_32_1559)">
<path d="M29 28.7825H15C14.4477 28.7825 14 29.2302 14 29.7825C14 30.3348 14.4477 30.7825 15 30.7825H29C29.5523 30.7825 30 30.3348 30 29.7825C30 29.2302 29.5523 28.7825 29 28.7825Z" fill="#F5F5F5"/>
<path d="M14 27.7825V29.7825C14 30.3348 14.4477 30.7825 15 30.7825C15.5523 30.7825 16 30.3348 16 29.7825V27.7825C16 27.2302 15.5523 26.7825 15 26.7825C14.4477 26.7825 14 27.2302 14 27.7825Z" fill="#F5F5F5"/>
<path d="M28 27.7825V29.7825C28 30.3348 28.4477 30.7825 29 30.7825C29.5523 30.7825 30 30.3348 30 29.7825V27.7825C30 27.2302 29.5523 26.7825 29 26.7825C28.4477 26.7825 28 27.2302 28 27.7825Z" fill="#F5F5F5"/>
<path d="M22 25.7825C21.7926 25.7841 21.59 25.7212 21.42 25.6025L17.42 22.7825C17.2044 22.6296 17.0581 22.3975 17.0131 22.1371C16.9681 21.8766 17.0281 21.6089 17.18 21.3925C17.2557 21.2844 17.3522 21.1923 17.4638 21.1216C17.5753 21.051 17.6998 21.0031 17.8299 20.9808C17.9601 20.9585 18.0934 20.9622 18.2221 20.9916C18.3509 21.0211 18.4725 21.0758 18.58 21.1525L22 23.5425L25.4 20.9825C25.6121 20.8234 25.8788 20.7551 26.1414 20.7926C26.4039 20.8301 26.6408 20.9704 26.7999 21.1825C26.9591 21.3947 27.0274 21.6614 26.9899 21.924C26.9524 22.1865 26.8121 22.4234 26.6 22.5825L22.6 25.5825C22.4269 25.7124 22.2163 25.7825 22 25.7825Z" fill="#F5F5F5"/>
<path d="M22 23.7825C21.7348 23.7825 21.4804 23.6772 21.2929 23.4896C21.1054 23.3021 21 23.0477 21 22.7825V14.7825C21 14.5173 21.1054 14.263 21.2929 14.0754C21.4804 13.8879 21.7348 13.7825 22 13.7825C22.2652 13.7825 22.5196 13.8879 22.7071 14.0754C22.8946 14.263 23 14.5173 23 14.7825V22.7825C23 23.0477 22.8946 23.3021 22.7071 23.4896C22.5196 23.6772 22.2652 23.7825 22 23.7825Z" fill="#F5F5F5"/>
</g>
<defs>
<clipPath id="clip0_32_1559">
<rect width="24" height="24" fill="white" transform="translate(10 10.7825)"/>
</clipPath>
</defs>
</svg>
