<svg width="722" height="538" viewBox="0 0 722 538" fill="none" xmlns="http://www.w3.org/2000/svg">
<path opacity="0.18" d="M116.91 453.882C96.5141 435.805 80.1241 413.75 68.7717 389.104C57.4192 364.458 51.3501 337.756 50.9463 310.678C50.4428 256.632 82.0084 211.967 122.244 175.517C150.899 149.443 252.44 -62.4311 445.201 18.202C508.143 44.5403 505.5 138.833 547.482 192.303C560.071 208.373 575.696 221.862 590.267 236.252C616.152 261.75 639.488 290.951 651.211 325.208C662.934 359.465 661.565 399.478 640.983 429.333C623.438 454.784 594.421 470.077 565.263 480.843C490.677 508.363 409.387 512.268 329.844 509.795C257.255 507.539 171.339 501.534 116.91 453.882Z" fill="#92FFC0"/>
<path d="M341.472 349.758C341.32 350.434 341.013 351.068 340.575 351.609C334.029 361.068 327.032 370.189 319.584 378.974C319.337 379.32 319 379.594 318.608 379.767C318.213 379.832 317.808 379.795 317.431 379.662C317.054 379.529 316.717 379.303 316.453 379.005C316.075 378.694 315.713 378.398 315.351 378.056C305.784 369.842 299.616 358.392 293.668 347.253C291.071 342.399 288.506 337.545 285.91 332.707C283.6 328.653 281.631 324.417 280.025 320.043C277.68 313.089 277.161 305.699 276.657 298.388C275.619 283.639 271.276 267.818 265.768 253.365C264.305 249.491 262.747 245.726 261.142 242.117C273.223 243.937 285.191 246.43 296.988 249.585C298.972 250.007 300.874 250.742 302.621 251.763C306.193 254.096 307.845 258.406 309.104 262.466C311.339 269.685 313.022 277.028 314.533 284.433C318.923 306.337 326.618 328.491 340.182 346.662C340.984 347.5 341.444 348.603 341.472 349.758Z" fill="#92FFC0"/>
<path d="M329.639 358.081C329.496 358.757 329.194 359.392 328.758 359.932C324.478 366.155 319.998 372.191 315.32 378.041C305.752 369.826 299.584 358.376 293.636 347.237C291.04 342.383 288.475 337.53 285.878 332.691C283.568 328.637 281.6 324.402 279.993 320.028C277.649 313.074 277.129 305.684 276.626 298.372C275.587 283.624 271.244 267.802 265.737 253.349C272.676 254.781 279.694 256.461 285.155 257.908C287.13 258.342 289.025 259.076 290.772 260.086C294.36 262.435 296.028 266.729 297.287 270.789C299.461 278.016 301.263 285.348 302.684 292.756C307.106 314.676 314.8 336.83 328.349 354.985C329.151 355.823 329.611 356.926 329.639 358.081Z" fill="url(#paint0_linear_18_1353)"/>
<path d="M281.488 257.581C287.043 266.418 289.356 276.888 290.505 287.233C291.653 297.579 291.527 308.049 292.723 318.348C293.573 325.815 295.084 333.298 294.376 340.781C292.959 355.778 278.986 364.879 281.079 385.757C281.394 388.868 269.45 385.088 266.744 386.659C263.471 388.573 259.553 388.993 255.729 389.351C236.453 391.171 216.516 392.82 198.153 386.768C196.16 386.252 194.311 385.3 192.74 383.983C191.29 382.383 190.216 380.487 189.592 378.43C186.115 369.052 183.436 359.404 181.583 349.586C179.915 340.641 178.924 331.587 177.161 322.657C175.256 313.027 172.459 303.591 168.806 294.467C166.697 289.209 164.274 283.982 163.534 278.365C162.197 268.409 152.519 253.318 160.765 247.36C164.132 244.902 196.422 241.526 201.677 239.223C204.354 238.009 207.108 236.97 209.923 236.112C215.575 234.696 221.409 234.124 227.232 234.416C232.736 234.397 238.229 234.918 243.628 235.972C248.664 237.061 253.07 239.877 257.885 240.981C262.748 242.032 267.346 244.044 271.402 246.897C275.458 249.749 278.889 253.384 281.488 257.581Z" fill="#92FFC0"/>
<path d="M281.488 257.581C287.043 266.418 289.356 276.888 290.505 287.233C291.653 297.579 291.527 308.049 292.723 318.348C293.573 325.815 295.084 333.298 294.376 340.781C292.959 355.778 278.986 364.879 281.079 385.757C281.394 388.868 269.45 385.088 266.744 386.659C263.471 388.573 259.553 388.993 255.729 389.351C236.453 391.171 216.516 392.82 198.153 386.768C196.16 386.252 194.311 385.3 192.74 383.983C191.29 382.383 190.216 380.487 189.592 378.43C186.115 369.052 183.436 359.404 181.583 349.586C179.915 340.641 178.924 331.587 177.161 322.657C175.256 313.027 172.459 303.591 168.806 294.467C166.697 289.209 164.274 283.982 163.534 278.365C162.197 268.409 152.519 253.318 160.765 247.36C164.132 244.902 196.422 241.526 201.677 239.223C204.354 238.009 207.108 236.97 209.923 236.112C215.575 234.696 221.409 234.124 227.232 234.416C232.736 234.397 238.229 234.918 243.628 235.972C248.664 237.061 253.07 239.877 257.885 240.981C262.748 242.032 267.346 244.044 271.402 246.897C275.458 249.749 278.889 253.384 281.488 257.581Z" fill="url(#paint1_linear_18_1353)"/>
<path d="M85.6118 538H671.069L546.727 385.228H88.3026L85.6118 538Z" fill="#3F3D56"/>
<path d="M85.6118 538H671.069L546.727 385.228H88.3026L85.6118 538Z" fill="url(#paint2_linear_18_1353)"/>
<path d="M207.987 417.509V422.301L228.569 449.122L282.432 439.834L283.03 428.804L261.74 408.984L207.987 417.509Z" fill="#92FFC0"/>
<path d="M207.987 417.509V422.301L228.569 449.122L282.432 439.834L283.03 428.804L261.74 408.984L207.987 417.509Z" fill="url(#paint3_linear_18_1353)"/>
<path d="M182.952 297.019C182.809 300.089 182.28 303.131 181.378 306.073C180.151 309.791 178.027 313.151 176.658 316.807C174.757 321.558 174.055 326.695 174.612 331.773C175.009 333.865 175.141 335.997 175.006 338.121C174.801 339.676 174.219 341.092 173.873 342.601C172.724 347.766 174.502 353.071 176.264 358.065C171.504 359.535 166.911 361.491 162.559 363.899L161.379 364.63C156.674 367.474 153.194 371.933 151.607 377.154C151.15 378.974 150.647 381.245 148.806 381.65C147.929 381.776 147.037 381.558 146.32 381.043C143.173 378.99 142.512 374.82 142.197 371.087C141.111 358.19 135.116 285.677 151.638 257.441C153.527 254.205 157.523 245.151 166.382 245.633C173.259 246.006 177.492 250.471 180.041 256.881C184.431 268.051 183.755 285.148 182.952 297.019Z" fill="#92FFC0"/>
<path d="M182.952 297.019C182.809 300.089 182.28 303.131 181.378 306.073C180.151 309.791 178.027 313.151 176.658 316.807C174.757 321.558 174.055 326.695 174.612 331.773C175.009 333.865 175.141 335.997 175.006 338.121C174.801 339.677 174.219 341.092 173.873 342.601C172.724 347.766 174.502 353.071 176.264 358.065C171.504 359.535 166.911 361.491 162.559 363.899C160.985 337.343 160.23 288.26 173.149 266.2C174.36 264.131 176.422 259.697 180.057 256.865C184.431 268.051 183.755 285.148 182.952 297.019Z" fill="url(#paint4_linear_18_1353)"/>
<path d="M214.407 235.785C214.856 238.982 215.109 242.204 215.163 245.431C216.547 274.601 226.524 302.728 238.923 329.222C241.24 333.683 243.065 338.377 244.368 343.224C245.034 346.599 245.419 350.023 245.517 353.46L246.728 374.027C246.094 363.732 248.051 353.443 252.425 344.079C256.044 336.301 261.252 329.424 264.258 321.459C269.686 307.084 267.405 291.091 264.478 276.016C262.432 265.266 258.593 252.292 259.6 241.386C260.056 241.277 234.329 233.265 221.158 232.285C219.806 232.122 218.436 232.369 217.23 232.994C216.025 233.619 215.04 234.593 214.407 235.785Z" fill="#DFCBC7"/>
<path d="M205.879 237.87L192.142 281.306L209.891 289.271L203.865 308.189L228.05 332.676C231.627 336.31 234.44 340.609 236.327 345.324L246.398 370.589C246.398 370.589 249.639 347.891 236.563 321.335C223.487 294.778 214.407 235.77 214.407 235.77L205.879 237.87Z" fill="#92FFC0"/>
<path d="M205.879 237.87L192.142 281.306L209.891 289.271L203.865 308.189L228.05 332.676C231.627 336.31 234.44 340.609 236.327 345.324L246.398 370.589C246.398 370.589 249.639 347.891 236.563 321.335C223.487 294.778 214.407 235.77 214.407 235.77L205.879 237.87Z" fill="url(#paint5_linear_18_1353)"/>
<path d="M259.6 241.448L264.321 243.004L282.621 277.37C282.621 277.37 275.241 294.296 275.241 292.927C275.241 291.558 283.298 311.191 283.298 311.191C283.298 311.191 270.221 338.401 261.174 342.383C252.126 346.366 246.555 374.914 246.555 374.914C246.555 374.914 243.188 349.462 264.273 321.49C265.501 319.934 267.877 307.862 265.532 287.949C263.188 268.035 256.563 247.36 259.6 241.448Z" fill="#92FFC0"/>
<path d="M259.6 241.448L264.321 243.004L282.621 277.37C282.621 277.37 275.241 294.296 275.241 292.927C275.241 291.558 283.298 311.191 283.298 311.191C283.298 311.191 270.221 338.401 261.174 342.383C252.126 346.366 246.555 374.914 246.555 374.914C246.555 374.914 243.188 349.462 264.273 321.49C265.501 319.934 267.877 307.862 265.532 287.949C263.188 268.035 256.563 247.36 259.6 241.448Z" fill="url(#paint6_linear_18_1353)"/>
<path d="M192.818 208.902C190.867 196.114 185.753 160.675 205.202 142.411C229.136 119.884 254.297 123.26 271.921 136.188C278.506 140.734 283.665 147.02 286.807 154.328C289.561 161.188 290.206 168.656 290.599 175.968C291.126 180.952 291.158 185.975 290.693 190.965C290.003 195.815 288.316 200.474 285.737 204.655C284.824 206.133 283.801 207.533 282.92 209.042C280.486 213.423 279.047 218.275 278.703 223.262C278.357 228.239 278.452 233.236 278.986 238.197C279.065 239.021 279.584 239.037 278.687 239.379C277.956 239.487 277.211 239.44 276.5 239.239C275.162 239.037 273.856 238.663 272.535 238.477C268.318 237.901 264.116 237.279 259.946 236.657L212.503 236.05L190.474 232.409C193.318 224.911 194.127 216.806 192.818 208.902Z" fill="#022218"/>
<path d="M192.818 208.902C190.867 196.114 185.753 160.675 205.202 142.411C229.136 119.884 254.297 123.26 271.921 136.188C281.081 143.092 287.327 153.108 289.45 164.3C290.391 168.942 290.886 173.661 290.93 178.395C291.04 184.229 290.93 191.338 288.805 196.83C287.452 200.47 285.029 203.613 283.329 207.113C281.133 212.204 279.687 217.579 279.033 223.075C278.137 228.428 278.259 233.9 279.395 239.208C276.012 239.628 271.764 238.383 268.38 237.886C265.564 237.497 262.747 237.077 259.93 236.657L212.488 236.05L190.458 232.409C193.308 224.912 194.122 216.807 192.818 208.902Z" fill="url(#paint7_linear_18_1353)"/>
<path d="M254.565 255.699C253.202 257.756 251.4 259.492 249.284 260.785C247.169 262.078 244.792 262.896 242.322 263.182C241.961 263.205 241.598 263.205 241.237 263.182C239.974 263.165 238.72 262.982 237.507 262.637C234.193 261.614 231.129 259.925 228.506 257.674C222.486 252.792 217.742 246.549 214.675 239.472C214.377 238.861 214.191 238.203 214.124 237.528C214.124 237.108 215.336 236.314 216.925 234.339C219.482 231.02 221.251 227.176 222.102 223.091C222.842 220.073 221.724 212.621 221.614 208.498C221.614 206.756 221.614 205.604 222.149 205.589C223.394 205.681 224.58 206.148 225.548 206.927C231.205 210.784 235.929 215.831 239.38 221.706L240.151 223.091C242.003 226.296 243.375 229.749 244.226 233.343C244.95 237.154 248.742 235.319 253.164 236.454C253.762 236.61 254.25 237.621 254.643 239.099C255.902 243.875 256.122 253.552 254.565 255.699Z" fill="#D0957E"/>
<path d="M254.643 239.13C254.643 239.659 254.643 240.219 254.643 240.686C254.486 244.42 254.36 248.153 254.203 251.887C254.124 253.878 253.904 256.15 252.283 257.285C248.81 259.581 245.121 261.54 241.268 263.135C240.567 263.497 239.76 263.607 238.986 263.446C238.483 263.197 237.999 262.911 237.539 262.59C231.056 257.923 221.221 242.646 216.957 234.292C219.513 230.973 221.282 227.129 222.134 223.044C222.873 220.026 221.756 212.574 221.646 208.451C224.525 210.598 232.535 216.588 239.411 221.659C244.258 225.253 248.538 228.396 250.033 229.438C251.048 230.065 251.97 230.829 252.771 231.709C254.239 233.897 254.9 236.517 254.643 239.13Z" fill="url(#paint8_linear_18_1353)"/>
<path d="M227.531 380.872C229.514 381.945 231.229 383.455 233.133 384.668C234.061 385.259 235.037 385.773 235.981 386.224C238.977 387.891 241.811 389.829 244.447 392.011C244.783 392.229 245.071 392.512 245.293 392.844C245.515 393.176 245.666 393.549 245.737 393.94C245.704 394.321 245.572 394.687 245.355 395.004C245.137 395.32 244.84 395.575 244.494 395.745C243.569 396.156 242.566 396.369 241.551 396.369C240.537 396.369 239.534 396.156 238.609 395.745C236.764 394.912 234.809 394.341 232.802 394.049C232 394.049 231.229 394.049 230.411 394.049C229.55 393.876 228.729 393.549 227.987 393.084C224.299 390.675 221.236 387.44 219.049 383.641C218.274 382.661 217.789 381.487 217.649 380.25C217.649 379.021 218.892 379.161 219.899 379.114C222.556 379.013 225.192 379.621 227.531 380.872Z" fill="#D0957E"/>
<path d="M339.411 352.869C353.84 358.217 368.899 361.725 384.226 363.308C391.055 364.008 398.12 364.381 404.289 367.384C411.716 371.009 416.877 377.947 421.598 384.652C422.066 385.141 422.417 385.727 422.625 386.368C422.832 387.01 422.889 387.689 422.794 388.355C422.274 389.911 420.197 390.393 418.498 390.331C408.883 389.973 401.047 382.319 391.621 380.421C391.469 381.253 391.579 382.111 391.936 382.879C392.294 383.647 392.882 384.288 393.62 384.715C395.106 385.539 396.535 386.459 397.9 387.468C398.356 387.888 398.781 388.511 398.545 389.024C398.39 389.322 398.141 389.562 397.837 389.709C395.665 390.922 392.959 390.206 390.599 389.413C385.563 387.748 380.402 385.741 376.846 381.821C375.272 380.016 373.887 377.776 371.669 376.749C369.73 376.034 367.635 375.836 365.595 376.174C351.59 377.263 333.715 383.19 320.056 379.939C319.153 379.775 318.292 379.437 317.523 378.943C315.792 377.683 314.045 372.72 314.155 370.542C314.259 366.041 315.926 361.713 318.876 358.283C321.929 355 335.178 351.344 339.427 352.807" fill="#D0957E"/>
<path d="M327.955 416.887L412.329 449.122L540.071 423.857L457.475 391.902L327.955 411.318V416.887Z" fill="#92FFC0"/>
<path d="M327.955 411.318L412.329 443.568L540.071 418.303L457.475 386.333L327.955 411.318Z" fill="#92FFC0"/>
<path d="M327.955 411.318L412.329 443.568L540.071 418.303L457.475 386.333L327.955 411.318Z" fill="url(#paint9_linear_18_1353)"/>
<path d="M229.687 438.216L283.03 428.804L261.74 408.984L209.341 417.447L229.687 438.216Z" fill="#92FFC0"/>
<path d="M176.028 423.125L207.027 504.583L106.084 508.177L106.65 424.199L176.028 423.125Z" fill="#DFCBC7"/>
<path d="M190.6 370.993C195.32 373.56 200.293 376.143 205.658 377.092C210.001 377.869 214.502 377.527 218.782 378.554C226.162 380.328 232.157 386.068 235.509 392.82C238.861 399.572 239.852 407.319 239.946 414.787C239.946 415.44 239.773 416.342 239.128 416.342C238.799 416.344 238.481 416.228 238.231 416.016C233.07 412.375 232.346 404.612 227.216 400.91L230.867 413.962C231.197 415.16 231.339 416.794 230.174 417.26C229.702 417.432 229.183 417.432 228.711 417.26C224.919 416.171 222.417 412.749 220.308 409.482C218.2 406.215 216.233 402.543 212.834 400.583C214.743 405.769 216.542 410.955 218.231 416.14C216.469 416.871 214.502 415.72 213.086 414.444C208.869 410.586 206.367 405.281 203.975 400.116C205.248 404.353 205.894 408.749 205.894 413.169C203.943 413.402 202.59 411.364 201.725 409.606L192.425 390.611C192.18 390.033 191.828 389.505 191.386 389.055C190.839 388.647 190.212 388.356 189.545 388.199C177.633 384.59 164.919 386.488 152.991 382.879C151.281 382.44 149.639 381.77 148.113 380.888C145.438 379.176 144.526 370.573 144.526 367.431C144.542 365.847 144.951 364.291 145.716 362.9C146.482 361.509 147.58 360.324 148.916 359.45C152.189 357.365 156.202 357.505 159.931 357.365C163.078 357.256 169.042 355.918 171.796 357.552C179.144 361.908 183.078 366.995 190.6 370.993Z" fill="#D0957E"/>
<path d="M225.753 429.831L230.096 435.182L277.775 426.828L270.41 421.554L225.753 429.831Z" fill="#DFCBC7"/>
<path d="M412.329 449.137L540.071 423.857L570.755 311.004L443.03 336.269L412.329 449.137Z" fill="#92FFC0"/>
<path d="M412.329 449.137L540.071 423.857L570.755 311.004L443.03 336.269L412.329 449.137Z" fill="url(#paint10_linear_18_1353)"/>
<path d="M415.807 448.561L543.548 423.281L574.233 310.429L446.491 335.694L415.807 448.561Z" fill="#92FFC0"/>
<path d="M178.168 358.314C177.576 356.924 176.716 355.661 175.635 354.596C174.855 353.597 173.881 352.761 172.771 352.138C171.389 351.612 169.903 351.41 168.428 351.547L152.504 351.796C149.357 351.796 145.942 351.967 143.377 353.834C140.435 355.98 139.412 359.963 139.632 363.572C140.131 367.17 140.872 370.73 141.851 374.229C142.103 376.688 142.846 379.073 144.038 381.245C145.438 383.268 148.46 384.497 150.474 383.066C149.422 378.43 149.309 373.634 150.143 368.955C150.312 367.751 150.757 366.6 151.445 365.592C152.132 364.584 153.043 363.744 154.109 363.137C155.351 362.687 156.674 362.491 157.995 362.561L171.355 362.39C174.518 362.343 179.931 363.355 178.168 358.314Z" fill="#92FFC0"/>
<path d="M178.168 358.314C177.576 356.924 176.716 355.661 175.635 354.596C174.855 353.597 173.881 352.761 172.771 352.138C171.389 351.612 169.903 351.41 168.428 351.547L152.504 351.796C149.357 351.796 145.942 351.967 143.377 353.834C140.435 355.98 139.412 359.963 139.632 363.572C140.131 367.17 140.872 370.73 141.851 374.229C142.103 376.688 142.846 379.073 144.038 381.245C145.438 383.268 148.46 384.497 150.474 383.066C149.422 378.43 149.309 373.634 150.143 368.955C150.312 367.751 150.757 366.6 151.445 365.592C152.132 364.584 153.043 363.744 154.109 363.137C155.351 362.687 156.674 362.491 157.995 362.561L171.355 362.39C174.518 362.343 179.931 363.355 178.168 358.314Z" fill="url(#paint11_linear_18_1353)"/>
<path d="M115.919 499.729L196.815 495.84L173.778 430.173H113.102L115.919 499.729Z" stroke="url(#paint12_linear_18_1353)" stroke-width="0.840611" stroke-miterlimit="10"/>
<path d="M115.919 492.495L193.448 489.71" stroke="url(#paint13_linear_18_1353)" stroke-width="0.840611" stroke-miterlimit="10"/>
<path d="M115.919 486.101L193.448 483.316" stroke="url(#paint14_linear_18_1353)" stroke-width="0.840611" stroke-miterlimit="10"/>
<path d="M115.383 478.447L187.972 475.662" stroke="url(#paint15_linear_18_1353)" stroke-width="0.814065" stroke-miterlimit="10"/>
<path d="M114.99 471.415L185.863 469.268" stroke="url(#paint16_linear_18_1353)" stroke-width="0.814065" stroke-miterlimit="10"/>
<path d="M114.801 465.441L184.589 461.754" stroke="url(#paint17_linear_18_1353)" stroke-width="0.814065" stroke-miterlimit="10"/>
<path d="M114.801 459.047L182.905 456.122" stroke="url(#paint18_linear_18_1353)" stroke-width="0.814065" stroke-miterlimit="10"/>
<path d="M114.801 453.058L181.441 450.491" stroke="url(#paint19_linear_18_1353)" stroke-width="0.814065" stroke-miterlimit="10"/>
<path d="M114.597 447.084L179.333 444.641" stroke="url(#paint20_linear_18_1353)" stroke-width="0.814065" stroke-miterlimit="10"/>
<path d="M114.203 441.296L177.224 439.632" stroke="url(#paint21_linear_18_1353)" stroke-width="0.814065" stroke-miterlimit="10"/>
<path d="M113.81 435.105L175.745 434.202" stroke="url(#paint22_linear_18_1353)" stroke-width="0.814065" stroke-miterlimit="10"/>
<path d="M123.22 498.625L119.003 430.173" stroke="url(#paint23_linear_18_1353)" stroke-width="0.814065" stroke-miterlimit="10"/>
<path d="M139.302 430.033L149.058 497.225" stroke="url(#paint24_linear_18_1353)" stroke-width="0.814065" stroke-miterlimit="10"/>
<path d="M162.999 430.033L181.646 496.664" stroke="url(#paint25_linear_18_1353)" stroke-width="0.814065" stroke-miterlimit="10"/>
<path d="M278.719 223.744C276.842 226.73 274.636 229.5 272.141 232.005C267.798 236.672 263.282 241.51 257.428 244.155C255.521 245.074 253.429 245.558 251.307 245.571C247.641 245.446 244.368 243.284 241.567 240.904C223.833 226.171 216.06 201.482 219.537 178.815C220.175 173.331 222.058 168.061 225.045 163.398C230.096 156.163 238.939 152.196 247.767 151.17C254.438 150.285 261.226 151.171 267.436 153.737C273.637 156.34 278.735 160.985 281.866 166.882C283.189 169.731 284.243 172.694 285.013 175.734C286.618 181.211 280.859 220.15 278.719 223.744Z" fill="#D0957E"/>
<path d="M272.125 169.496C268.082 172.994 263.359 175.641 258.247 177.275C254.946 178.475 251.566 179.447 248.129 180.184C242.637 181.351 236.909 181.957 231.984 184.618C225.092 188.32 220.796 195.508 218.263 202.866C215.665 200.791 213.618 198.121 212.299 195.088C210.936 191.786 210.21 188.261 210.159 184.695C209.838 176.724 211.485 168.794 214.958 161.593C217.947 155.035 222.938 149.568 229.23 145.958C232.739 144.204 236.486 142.962 240.355 142.271C245.612 141.054 251.038 140.723 256.406 141.291C263.945 142.31 270.921 145.799 276.217 151.201C279.144 154.203 279.364 155.868 278.247 159.773C277.129 163.499 275.014 166.859 272.125 169.496Z" fill="#022218"/>
<path d="M223.896 428.477L219.317 424.354L227.059 422.908L231.842 426.735L223.896 428.477Z" fill="url(#paint26_linear_18_1353)"/>
<path d="M218.137 423.701L213.558 419.578L221.315 418.132L226.083 421.974L218.137 423.701Z" fill="url(#paint27_linear_18_1353)"/>
<path d="M233.149 426.875L228.569 422.768L236.311 421.321L241.095 425.148L233.149 426.875Z" fill="url(#paint28_linear_18_1353)"/>
<path d="M227.405 422.114L222.826 417.992L230.568 416.545L235.336 420.372L227.405 422.114Z" fill="url(#paint29_linear_18_1353)"/>
<path d="M242.401 425.288L237.822 421.181L245.58 419.718L250.347 423.561L242.401 425.288Z" fill="url(#paint30_linear_18_1353)"/>
<path d="M236.658 420.527L232.078 416.405L239.82 414.958L244.604 418.785L236.658 420.527Z" fill="url(#paint31_linear_18_1353)"/>
<path d="M251.669 423.701L247.09 419.578L254.832 418.132L259.616 421.974L251.669 423.701Z" fill="url(#paint32_linear_18_1353)"/>
<path d="M245.91 418.925L241.331 414.818L249.089 413.371L253.857 417.198L245.91 418.925Z" fill="url(#paint33_linear_18_1353)"/>
<path d="M260.922 422.114L256.343 417.992L264.085 416.545L268.868 420.372L260.922 422.114Z" fill="url(#paint34_linear_18_1353)"/>
<path d="M255.178 417.338L250.599 413.231L258.341 411.784L263.109 415.611L255.178 417.338Z" fill="url(#paint35_linear_18_1353)"/>
<defs>
<linearGradient id="paint0_linear_18_1353" x1="262.81" y1="335.476" x2="310.974" y2="300.356" gradientUnits="userSpaceOnUse">
<stop offset="0.01"/>
<stop offset="1" stop-opacity="0"/>
</linearGradient>
<linearGradient id="paint1_linear_18_1353" x1="171.764" y1="385.041" x2="241.58" y2="285.3" gradientUnits="userSpaceOnUse">
<stop offset="0.01"/>
<stop offset="1" stop-opacity="0"/>
</linearGradient>
<linearGradient id="paint2_linear_18_1353" x1="369.67" y1="588.701" x2="384.515" y2="395.921" gradientUnits="userSpaceOnUse">
<stop offset="0.01" stop-color="#022218"/>
<stop offset="1" stop-opacity="0"/>
</linearGradient>
<linearGradient id="paint3_linear_18_1353" x1="246.036" y1="403.539" x2="244.375" y2="467.807" gradientUnits="userSpaceOnUse">
<stop offset="0.01"/>
<stop offset="1" stop-opacity="0"/>
</linearGradient>
<linearGradient id="paint4_linear_18_1353" x1="219.695" y1="372.813" x2="159.359" y2="293.258" gradientUnits="userSpaceOnUse">
<stop offset="0.01"/>
<stop offset="1" stop-opacity="0"/>
</linearGradient>
<linearGradient id="paint5_linear_18_1353" x1="267.09" y1="281.337" x2="203.309" y2="317.851" gradientUnits="userSpaceOnUse">
<stop offset="0.01"/>
<stop offset="1" stop-opacity="0"/>
</linearGradient>
<linearGradient id="paint6_linear_18_1353" x1="223.77" y1="296.194" x2="283.463" y2="320.846" gradientUnits="userSpaceOnUse">
<stop offset="0.01"/>
<stop offset="1" stop-opacity="0"/>
</linearGradient>
<linearGradient id="paint7_linear_18_1353" x1="261.693" y1="264.908" x2="222.158" y2="140.002" gradientUnits="userSpaceOnUse">
<stop offset="0.01"/>
<stop offset="1" stop-opacity="0"/>
</linearGradient>
<linearGradient id="paint8_linear_18_1353" x1="256.909" y1="203.084" x2="227.392" y2="248.493" gradientUnits="userSpaceOnUse">
<stop offset="0.01"/>
<stop offset="1" stop-opacity="0"/>
</linearGradient>
<linearGradient id="paint9_linear_18_1353" x1="441.55" y1="434.669" x2="419.248" y2="374.513" gradientUnits="userSpaceOnUse">
<stop offset="0.01"/>
<stop offset="1" stop-opacity="0"/>
</linearGradient>
<linearGradient id="paint10_linear_18_1353" x1="412.329" y1="380.063" x2="570.755" y2="380.063" gradientUnits="userSpaceOnUse">
<stop offset="0.01"/>
<stop offset="1" stop-opacity="0"/>
</linearGradient>
<linearGradient id="paint11_linear_18_1353" x1="140.592" y1="393.396" x2="165.453" y2="347.279" gradientUnits="userSpaceOnUse">
<stop offset="0.01"/>
<stop offset="1" stop-opacity="0"/>
</linearGradient>
<linearGradient id="paint12_linear_18_1353" x1="112.331" y1="464.974" x2="197.854" y2="464.974" gradientUnits="userSpaceOnUse">
<stop offset="0.01"/>
<stop offset="1" stop-opacity="0"/>
</linearGradient>
<linearGradient id="paint13_linear_18_1353" x1="115.887" y1="491.11" x2="193.463" y2="491.11" gradientUnits="userSpaceOnUse">
<stop offset="0.01"/>
<stop offset="1" stop-opacity="0"/>
</linearGradient>
<linearGradient id="paint14_linear_18_1353" x1="115.887" y1="484.701" x2="193.463" y2="484.701" gradientUnits="userSpaceOnUse">
<stop offset="0.01"/>
<stop offset="1" stop-opacity="0"/>
</linearGradient>
<linearGradient id="paint15_linear_18_1353" x1="115.352" y1="477.062" x2="187.987" y2="477.062" gradientUnits="userSpaceOnUse">
<stop offset="0.01"/>
<stop offset="1" stop-opacity="0"/>
</linearGradient>
<linearGradient id="paint16_linear_18_1353" x1="114.974" y1="470.342" x2="185.879" y2="470.342" gradientUnits="userSpaceOnUse">
<stop offset="0.01"/>
<stop offset="1" stop-opacity="0"/>
</linearGradient>
<linearGradient id="paint17_linear_18_1353" x1="114.754" y1="463.59" x2="184.636" y2="463.59" gradientUnits="userSpaceOnUse">
<stop offset="0.01"/>
<stop offset="1" stop-opacity="0"/>
</linearGradient>
<linearGradient id="paint18_linear_18_1353" x1="114.77" y1="457.585" x2="182.936" y2="457.585" gradientUnits="userSpaceOnUse">
<stop offset="0.01"/>
<stop offset="1" stop-opacity="0"/>
</linearGradient>
<linearGradient id="paint19_linear_18_1353" x1="114.77" y1="451.766" x2="181.457" y2="451.766" gradientUnits="userSpaceOnUse">
<stop offset="0.01"/>
<stop offset="1" stop-opacity="0"/>
</linearGradient>
<linearGradient id="paint20_linear_18_1353" x1="114.565" y1="445.855" x2="179.364" y2="445.855" gradientUnits="userSpaceOnUse">
<stop offset="0.01"/>
<stop offset="1" stop-opacity="0"/>
</linearGradient>
<linearGradient id="paint21_linear_18_1353" x1="114.188" y1="440.472" x2="177.24" y2="440.472" gradientUnits="userSpaceOnUse">
<stop offset="0.01"/>
<stop offset="1" stop-opacity="0"/>
</linearGradient>
<linearGradient id="paint22_linear_18_1353" x1="113.794" y1="434.653" x2="175.761" y2="434.653" gradientUnits="userSpaceOnUse">
<stop offset="0.01"/>
<stop offset="1" stop-opacity="0"/>
</linearGradient>
<linearGradient id="paint23_linear_18_1353" x1="118.279" y1="464.399" x2="123.944" y2="464.399" gradientUnits="userSpaceOnUse">
<stop offset="0.01"/>
<stop offset="1" stop-opacity="0"/>
</linearGradient>
<linearGradient id="paint24_linear_18_1353" x1="138.578" y1="463.636" x2="149.781" y2="463.636" gradientUnits="userSpaceOnUse">
<stop offset="0.01"/>
<stop offset="1" stop-opacity="0"/>
</linearGradient>
<linearGradient id="paint25_linear_18_1353" x1="162.307" y1="463.356" x2="182.338" y2="463.356" gradientUnits="userSpaceOnUse">
<stop offset="0.01"/>
<stop offset="1" stop-opacity="0"/>
</linearGradient>
<linearGradient id="paint26_linear_18_1353" x1="225.265" y1="429.457" x2="225.726" y2="423.514" gradientUnits="userSpaceOnUse">
<stop offset="0.01"/>
<stop offset="1" stop-opacity="0"/>
</linearGradient>
<linearGradient id="paint27_linear_18_1353" x1="219.522" y1="424.697" x2="219.968" y2="418.753" gradientUnits="userSpaceOnUse">
<stop offset="0.01"/>
<stop offset="1" stop-opacity="0"/>
</linearGradient>
<linearGradient id="paint28_linear_18_1353" x1="234.518" y1="427.87" x2="234.979" y2="421.927" gradientUnits="userSpaceOnUse">
<stop offset="0.01"/>
<stop offset="1" stop-opacity="0"/>
</linearGradient>
<linearGradient id="paint29_linear_18_1353" x1="228.774" y1="423.11" x2="229.236" y2="417.151" gradientUnits="userSpaceOnUse">
<stop offset="0.01"/>
<stop offset="1" stop-opacity="0"/>
</linearGradient>
<linearGradient id="paint30_linear_18_1353" x1="243.786" y1="426.284" x2="244.232" y2="420.34" gradientUnits="userSpaceOnUse">
<stop offset="0.01"/>
<stop offset="1" stop-opacity="0"/>
</linearGradient>
<linearGradient id="paint31_linear_18_1353" x1="238.027" y1="421.507" x2="238.488" y2="415.564" gradientUnits="userSpaceOnUse">
<stop offset="0.01"/>
<stop offset="1" stop-opacity="0"/>
</linearGradient>
<linearGradient id="paint32_linear_18_1353" x1="253.038" y1="424.697" x2="253.5" y2="418.753" gradientUnits="userSpaceOnUse">
<stop offset="0.01"/>
<stop offset="1" stop-opacity="0"/>
</linearGradient>
<linearGradient id="paint33_linear_18_1353" x1="247.295" y1="419.921" x2="247.741" y2="413.977" gradientUnits="userSpaceOnUse">
<stop offset="0.01"/>
<stop offset="1" stop-opacity="0"/>
</linearGradient>
<linearGradient id="paint34_linear_18_1353" x1="262.291" y1="423.11" x2="262.752" y2="417.151" gradientUnits="userSpaceOnUse">
<stop offset="0.01"/>
<stop offset="1" stop-opacity="0"/>
</linearGradient>
<linearGradient id="paint35_linear_18_1353" x1="256.547" y1="418.334" x2="257.009" y2="412.39" gradientUnits="userSpaceOnUse">
<stop offset="0.01"/>
<stop offset="1" stop-opacity="0"/>
</linearGradient>
</defs>
</svg>
