<svg width="50" height="50" viewBox="0 0 50 50" fill="none" xmlns="http://www.w3.org/2000/svg">
<g clip-path="url(#clip0_23_1382)">
<path d="M16.25 12.5C15.5083 12.5 14.7833 12.7199 14.1666 13.132C13.5499 13.544 13.0693 14.1297 12.7855 14.8149C12.5016 15.5002 12.4274 16.2542 12.5721 16.9816C12.7168 17.709 13.0739 18.3772 13.5984 18.9017C14.1228 19.4261 14.791 19.7832 15.5184 19.9279C16.2458 20.0726 16.9998 19.9984 17.6851 19.7145C18.3703 19.4307 18.956 18.9501 19.368 18.3334C19.7801 17.7167 20 16.9917 20 16.25C20 15.2554 19.6049 14.3016 18.9017 13.5983C18.1984 12.8951 17.2446 12.5 16.25 12.5ZM16.25 17.5C16.0028 17.5 15.7611 17.4267 15.5555 17.2893C15.35 17.152 15.1898 16.9568 15.0952 16.7284C15.0005 16.4999 14.9758 16.2486 15.024 16.0061C15.0723 15.7637 15.1913 15.5409 15.3661 15.3661C15.5409 15.1913 15.7637 15.0722 16.0061 15.024C16.2486 14.9758 16.4999 15.0005 16.7284 15.0952C16.9568 15.1898 17.152 15.35 17.2893 15.5555C17.4267 15.7611 17.5 16.0028 17.5 16.25C17.5 16.5815 17.3683 16.8995 17.1339 17.1339C16.8995 17.3683 16.5815 17.5 16.25 17.5Z" fill="#F5F5F5"/>
<path d="M25 12.5C24.2583 12.5 23.5333 12.7199 22.9166 13.132C22.2999 13.544 21.8193 14.1297 21.5355 14.8149C21.2516 15.5002 21.1774 16.2542 21.3221 16.9816C21.4668 17.709 21.8239 18.3772 22.3484 18.9017C22.8728 19.4261 23.541 19.7832 24.2684 19.9279C24.9958 20.0726 25.7498 19.9984 26.4351 19.7145C27.1203 19.4307 27.706 18.9501 28.118 18.3334C28.5301 17.7167 28.75 16.9917 28.75 16.25C28.75 15.2554 28.3549 14.3016 27.6517 13.5983C26.9484 12.8951 25.9946 12.5 25 12.5ZM25 17.5C24.7528 17.5 24.5111 17.4267 24.3055 17.2893C24.1 17.152 23.9398 16.9568 23.8452 16.7284C23.7505 16.4999 23.7258 16.2486 23.774 16.0061C23.8223 15.7637 23.9413 15.5409 24.1161 15.3661C24.2909 15.1913 24.5137 15.0722 24.7561 15.024C24.9986 14.9758 25.2499 15.0005 25.4784 15.0952C25.7068 15.1898 25.902 15.35 26.0393 15.5555C26.1767 15.7611 26.25 16.0028 26.25 16.25C26.25 16.5815 26.1183 16.8995 25.8839 17.1339C25.6495 17.3683 25.3315 17.5 25 17.5Z" fill="#F5F5F5"/>
<path d="M33.75 20C34.4917 20 35.2167 19.7801 35.8334 19.368C36.4501 18.956 36.9307 18.3703 37.2145 17.6851C37.4984 16.9998 37.5726 16.2458 37.4279 15.5184C37.2833 14.791 36.9261 14.1228 36.4017 13.5984C35.8772 13.0739 35.209 12.7168 34.4816 12.5721C33.7542 12.4274 33.0002 12.5016 32.3149 12.7855C31.6297 13.0693 31.044 13.5499 30.632 14.1666C30.2199 14.7833 30 15.5083 30 16.25C30 17.2446 30.3951 18.1984 31.0983 18.9017C31.8016 19.6049 32.7554 20 33.75 20ZM33.75 15C33.9972 15 34.2389 15.0733 34.4445 15.2107C34.65 15.348 34.8102 15.5432 34.9048 15.7716C34.9995 16.0001 35.0242 16.2514 34.976 16.4939C34.9278 16.7363 34.8087 16.9591 34.6339 17.1339C34.4591 17.3087 34.2363 17.4278 33.9939 17.476C33.7514 17.5242 33.5001 17.4995 33.2716 17.4049C33.0432 17.3102 32.848 17.15 32.7107 16.9445C32.5733 16.7389 32.5 16.4972 32.5 16.25C32.5 15.9185 32.6317 15.6005 32.8661 15.3661C33.1005 15.1317 33.4185 15 33.75 15Z" fill="#F5F5F5"/>
<path d="M16.25 21.25C15.5083 21.25 14.7833 21.4699 14.1666 21.882C13.5499 22.294 13.0693 22.8797 12.7855 23.5649C12.5016 24.2502 12.4274 25.0042 12.5721 25.7316C12.7168 26.459 13.0739 27.1272 13.5984 27.6517C14.1228 28.1761 14.791 28.5333 15.5184 28.6779C16.2458 28.8226 16.9998 28.7484 17.6851 28.4645C18.3703 28.1807 18.956 27.7001 19.368 27.0834C19.7801 26.4667 20 25.7417 20 25C20 24.0054 19.6049 23.0516 18.9017 22.3483C18.1984 21.6451 17.2446 21.25 16.25 21.25ZM16.25 26.25C16.0028 26.25 15.7611 26.1767 15.5555 26.0393C15.35 25.902 15.1898 25.7068 15.0952 25.4784C15.0005 25.2499 14.9758 24.9986 15.024 24.7561C15.0723 24.5137 15.1913 24.2909 15.3661 24.1161C15.5409 23.9413 15.7637 23.8222 16.0061 23.774C16.2486 23.7258 16.4999 23.7505 16.7284 23.8452C16.9568 23.9398 17.152 24.1 17.2893 24.3055C17.4267 24.5111 17.5 24.7528 17.5 25C17.5 25.3315 17.3683 25.6495 17.1339 25.8839C16.8995 26.1183 16.5815 26.25 16.25 26.25Z" fill="#F5F5F5"/>
<path d="M25 21.25C24.2583 21.25 23.5333 21.4699 22.9166 21.882C22.2999 22.294 21.8193 22.8797 21.5355 23.5649C21.2516 24.2502 21.1774 25.0042 21.3221 25.7316C21.4668 26.459 21.8239 27.1272 22.3484 27.6517C22.8728 28.1761 23.541 28.5333 24.2684 28.6779C24.9958 28.8226 25.7498 28.7484 26.4351 28.4645C27.1203 28.1807 27.706 27.7001 28.118 27.0834C28.5301 26.4667 28.75 25.7417 28.75 25C28.75 24.0054 28.3549 23.0516 27.6517 22.3483C26.9484 21.6451 25.9946 21.25 25 21.25ZM25 26.25C24.7528 26.25 24.5111 26.1767 24.3055 26.0393C24.1 25.902 23.9398 25.7068 23.8452 25.4784C23.7505 25.2499 23.7258 24.9986 23.774 24.7561C23.8223 24.5137 23.9413 24.2909 24.1161 24.1161C24.2909 23.9413 24.5137 23.8222 24.7561 23.774C24.9986 23.7258 25.2499 23.7505 25.4784 23.8452C25.7068 23.9398 25.902 24.1 26.0393 24.3055C26.1767 24.5111 26.25 24.7528 26.25 25C26.25 25.3315 26.1183 25.6495 25.8839 25.8839C25.6495 26.1183 25.3315 26.25 25 26.25Z" fill="#F5F5F5"/>
<path d="M33.75 21.25C33.0083 21.25 32.2833 21.4699 31.6666 21.882C31.0499 22.294 30.5693 22.8797 30.2855 23.5649C30.0016 24.2502 29.9274 25.0042 30.0721 25.7316C30.2168 26.459 30.5739 27.1272 31.0984 27.6517C31.6228 28.1761 32.291 28.5333 33.0184 28.6779C33.7458 28.8226 34.4998 28.7484 35.1851 28.4645C35.8703 28.1807 36.456 27.7001 36.868 27.0834C37.2801 26.4667 37.5 25.7417 37.5 25C37.5 24.0054 37.1049 23.0516 36.4017 22.3483C35.6984 21.6451 34.7446 21.25 33.75 21.25ZM33.75 26.25C33.5028 26.25 33.2611 26.1767 33.0555 26.0393C32.85 25.902 32.6898 25.7068 32.5952 25.4784C32.5005 25.2499 32.4758 24.9986 32.524 24.7561C32.5723 24.5137 32.6913 24.2909 32.8661 24.1161C33.0409 23.9413 33.2637 23.8222 33.5061 23.774C33.7486 23.7258 33.9999 23.7505 34.2284 23.8452C34.4568 23.9398 34.652 24.1 34.7893 24.3055C34.9267 24.5111 35 24.7528 35 25C35 25.3315 34.8683 25.6495 34.6339 25.8839C34.3995 26.1183 34.0815 26.25 33.75 26.25Z" fill="#F5F5F5"/>
<path d="M16.25 30C15.5083 30 14.7833 30.2199 14.1666 30.632C13.5499 31.044 13.0693 31.6297 12.7855 32.3149C12.5016 33.0002 12.4274 33.7542 12.5721 34.4816C12.7168 35.209 13.0739 35.8772 13.5984 36.4017C14.1228 36.9261 14.791 37.2833 15.5184 37.4279C16.2458 37.5726 16.9998 37.4984 17.6851 37.2145C18.3703 36.9307 18.956 36.4501 19.368 35.8334C19.7801 35.2167 20 34.4917 20 33.75C20 32.7554 19.6049 31.8016 18.9017 31.0983C18.1984 30.3951 17.2446 30 16.25 30ZM16.25 35C16.0028 35 15.7611 34.9267 15.5555 34.7893C15.35 34.652 15.1898 34.4568 15.0952 34.2284C15.0005 33.9999 14.9758 33.7486 15.024 33.5061C15.0723 33.2637 15.1913 33.0409 15.3661 32.8661C15.5409 32.6913 15.7637 32.5722 16.0061 32.524C16.2486 32.4758 16.4999 32.5005 16.7284 32.5952C16.9568 32.6898 17.152 32.85 17.2893 33.0555C17.4267 33.2611 17.5 33.5028 17.5 33.75C17.5 34.0815 17.3683 34.3995 17.1339 34.6339C16.8995 34.8683 16.5815 35 16.25 35Z" fill="#F5F5F5"/>
<path d="M25 30C24.2583 30 23.5333 30.2199 22.9166 30.632C22.2999 31.044 21.8193 31.6297 21.5355 32.3149C21.2516 33.0002 21.1774 33.7542 21.3221 34.4816C21.4668 35.209 21.8239 35.8772 22.3484 36.4017C22.8728 36.9261 23.541 37.2833 24.2684 37.4279C24.9958 37.5726 25.7498 37.4984 26.4351 37.2145C27.1203 36.9307 27.706 36.4501 28.118 35.8334C28.5301 35.2167 28.75 34.4917 28.75 33.75C28.75 32.7554 28.3549 31.8016 27.6517 31.0983C26.9484 30.3951 25.9946 30 25 30ZM25 35C24.7528 35 24.5111 34.9267 24.3055 34.7893C24.1 34.652 23.9398 34.4568 23.8452 34.2284C23.7505 33.9999 23.7258 33.7486 23.774 33.5061C23.8223 33.2637 23.9413 33.0409 24.1161 32.8661C24.2909 32.6913 24.5137 32.5722 24.7561 32.524C24.9986 32.4758 25.2499 32.5005 25.4784 32.5952C25.7068 32.6898 25.902 32.85 26.0393 33.0555C26.1767 33.2611 26.25 33.5028 26.25 33.75C26.25 34.0815 26.1183 34.3995 25.8839 34.6339C25.6495 34.8683 25.3315 35 25 35Z" fill="#F5F5F5"/>
<path d="M33.75 30C33.0083 30 32.2833 30.2199 31.6666 30.632C31.0499 31.044 30.5693 31.6297 30.2855 32.3149C30.0016 33.0002 29.9274 33.7542 30.0721 34.4816C30.2168 35.209 30.5739 35.8772 31.0984 36.4017C31.6228 36.9261 32.291 37.2833 33.0184 37.4279C33.7458 37.5726 34.4998 37.4984 35.1851 37.2145C35.8703 36.9307 36.456 36.4501 36.868 35.8334C37.2801 35.2167 37.5 34.4917 37.5 33.75C37.5 32.7554 37.1049 31.8016 36.4017 31.0983C35.6984 30.3951 34.7446 30 33.75 30ZM33.75 35C33.5028 35 33.2611 34.9267 33.0555 34.7893C32.85 34.652 32.6898 34.4568 32.5952 34.2284C32.5005 33.9999 32.4758 33.7486 32.524 33.5061C32.5723 33.2637 32.6913 33.0409 32.8661 32.8661C33.0409 32.6913 33.2637 32.5722 33.5061 32.524C33.7486 32.4758 33.9999 32.5005 34.2284 32.5952C34.4568 32.6898 34.652 32.85 34.7893 33.0555C34.9267 33.2611 35 33.5028 35 33.75C35 34.0815 34.8683 34.3995 34.6339 34.6339C34.3995 34.8683 34.0815 35 33.75 35Z" fill="#F5F5F5"/>
</g>
<defs>
<clipPath id="clip0_23_1382">
<rect width="30" height="30" fill="white" transform="translate(10 10)"/>
</clipPath>
</defs>
</svg>
